<svg width="717" height="187" viewBox="0 0 717 187" fill="none" xmlns="http://www.w3.org/2000/svg">
<path fill-rule="evenodd" clip-rule="evenodd" d="M691.756 67.9528H669.485C660.022 67.9528 652.352 74.9637 652.352 83.6162V130.073C652.352 130.363 652.606 130.596 652.922 130.596H668.918C669.229 130.596 669.484 130.363 669.484 130.073V83.6162C669.484 80.7334 672.041 78.3968 675.195 78.3968H681.478C687.469 78.3968 692.333 73.9523 692.333 68.4751C692.333 68.1893 692.071 67.9528 691.754 67.9528" fill="#004B84"/>
<path fill-rule="evenodd" clip-rule="evenodd" d="M621.476 114.934C621.476 117.822 618.919 120.156 615.765 120.156H604.34C601.186 120.156 598.628 117.822 598.628 114.934V83.6161C598.628 80.7333 601.186 78.3941 604.34 78.3941H615.765C618.919 78.3941 621.476 80.7333 621.476 83.6161V114.934ZM621.476 67.9527H598.63C589.168 67.9527 581.496 74.9637 581.496 83.6161V161.394C581.496 161.683 581.751 161.916 582.069 161.916C591.217 161.916 598.63 155.138 598.63 146.778V131.114C598.63 130.827 598.884 130.594 599.249 130.569L621.478 130.594C630.945 130.594 638.611 123.583 638.611 114.931V83.6135C638.611 74.9611 630.945 67.9501 621.478 67.9501" fill="#004B84"/>
<path fill-rule="evenodd" clip-rule="evenodd" d="M551.703 114.982C551.703 117.867 549.143 120.201 545.987 120.201H534.567C531.416 120.201 528.858 117.867 528.858 114.982V83.6614C528.858 80.7772 531.417 78.442 534.567 78.442H545.987C549.143 78.442 551.703 80.7772 551.703 83.6614V114.982ZM551.703 68.0006H528.858C519.399 68.0006 511.722 75.0089 511.722 83.6614V114.982C511.722 123.634 519.399 130.645 528.858 130.645H551.703C561.162 130.645 568.837 123.634 568.837 114.982V83.6614C568.837 75.0089 561.164 68.0006 551.703 68.0006Z" fill="#004B84"/>
<path fill-rule="evenodd" clip-rule="evenodd" d="M506.22 67.9554H453.871C447.882 67.9554 443.021 72.396 443.021 77.8705C443.021 78.1603 443.282 78.3968 443.595 78.3968L465.975 78.4354C465.347 80.0595 464.992 81.798 464.992 83.6162L464.995 130.073C464.995 130.363 465.251 130.596 465.569 130.596H481.56C481.874 130.596 482.13 130.363 482.13 130.073V83.6162C482.13 80.7334 484.686 78.3968 487.836 78.3968H495.936C501.93 78.3968 506.791 73.9523 506.791 68.4778C506.791 68.188 506.529 67.9554 506.22 67.9554Z" fill="#004B84"/>
<path fill-rule="evenodd" clip-rule="evenodd" d="M280.302 65.8661C272.846 65.8661 266.333 69.6048 262.893 75.1418L252.214 92.0493C252.109 92.1849 251.94 92.2686 251.285 92.0493L240.607 75.1418C237.171 69.6048 230.652 65.8661 223.196 65.8661C212.154 65.8661 203.208 74.0467 203.208 84.1359V140.512C203.208 140.805 203.461 141.037 203.779 141.037C212.927 141.037 220.34 134.256 220.34 125.9V83.6162C220.34 80.7334 222.898 78.3941 226.052 78.3941C227.923 78.3941 229.576 79.2115 230.619 80.4808L243.187 100.373V119.632C243.187 119.918 243.44 120.154 243.755 120.154H259.749C260.061 120.154 260.316 119.918 260.316 119.632V100.373L272.887 80.4808C273.928 79.2115 275.584 78.3941 277.449 78.3941C280.605 78.3941 283.161 80.7334 283.161 83.6162V130.073C283.161 130.363 283.417 130.596 283.733 130.596H299.723C300.036 130.596 300.292 130.363 300.292 130.073V84.1345C300.292 74.0453 291.345 65.8647 280.304 65.8647" fill="#004B84"/>
<path fill-rule="evenodd" clip-rule="evenodd" d="M430.687 94.4669C430.555 94.3712 430.469 94.2224 430.684 93.6416C434.539 91.4339 436.551 87.3775 436.551 83.6162C436.551 74.9637 428.879 67.9528 419.418 67.9528H390.265C384.284 67.97 379.44 72.4026 379.44 77.8718C379.44 78.1602 379.696 78.3942 380.012 78.3942H413.706C416.863 78.3942 419.418 80.7334 419.418 83.6162C419.418 86.499 416.863 88.8342 413.706 88.8342H401.688C395.706 88.8462 390.861 93.284 390.861 98.7533C390.861 99.039 391.117 99.2729 391.432 99.2729H413.706C416.863 99.2729 419.418 101.609 419.418 104.495V114.932C419.418 117.82 416.863 120.154 413.706 120.154H380.012C379.696 120.154 379.44 120.387 379.44 120.677C379.44 126.154 384.296 130.594 390.294 130.594H419.418C428.878 130.594 436.551 123.583 436.551 114.931V104.494C436.551 100.732 434.539 96.6759 430.687 94.4656" fill="#004B84"/>
<path fill-rule="evenodd" clip-rule="evenodd" d="M368.254 67.9528H352.267C351.948 67.9528 351.692 68.1893 351.692 68.4751V114.934C351.692 117.822 349.139 120.156 345.98 120.156H334.557C331.405 120.156 328.845 117.822 328.845 114.934V68.4751C328.845 68.1893 328.59 67.9528 328.277 67.9528H312.283C311.969 67.9528 311.715 68.1893 311.715 68.4751V114.934C311.715 123.585 319.385 130.597 328.845 130.597H351.122C351.438 130.597 351.691 130.83 351.691 131.117V161.395C351.691 161.685 351.945 161.917 352.265 161.917C361.408 161.917 368.826 155.139 368.826 146.779V68.4751C368.824 68.1893 368.568 67.9528 368.253 67.9528" fill="#004B84"/>
<path d="M98.9831 25.0827C119.5 25.0827 138.081 32.6865 151.532 44.9766C158.492 51.339 164.078 58.9614 167.847 67.4344L156.492 74.5331C153.437 66.5811 148.461 59.4545 142.075 53.6184C131.049 43.5386 115.811 37.3038 98.9831 37.3038C82.1549 37.3038 66.9146 43.5386 55.8882 53.6184C44.8604 63.6996 38.0364 77.6272 38.0364 93.0089C38.0364 99.0961 39.1066 104.951 41.0798 110.435L29.5154 117.196C26.3818 109.682 24.666 101.528 24.666 93.0089C24.666 74.2527 32.9849 57.2681 46.4323 44.9766C59.8768 32.6865 78.4615 25.0827 98.9831 25.0827ZM172.294 81.8365C172.954 85.4729 173.296 89.2037 173.296 93.0089C173.296 111.764 164.975 128.751 151.531 141.04C138.082 153.333 119.499 160.938 98.9816 160.938C78.4644 160.938 59.8783 153.333 46.4308 141.04C40.2117 135.357 35.0947 128.673 31.3839 121.273L43.3423 115.774C46.3988 122.006 50.671 127.632 55.8868 132.401C66.9131 142.478 82.1505 148.715 98.9816 148.715C115.813 148.715 131.047 142.481 142.074 132.401C153.1 122.319 159.923 108.392 159.923 93.0102C159.923 91.0777 159.815 89.1665 159.604 87.2871L172.294 81.8365ZM107.713 45.6571C128.031 48.7845 143.64 62.1831 149.26 79.0547L130.557 90.7441L119.849 69.2646L111.913 53.3499L104.644 69.3443L91.3826 98.522L83.5552 83.0606L76.1175 68.3754L68.4414 83.0287L59.1498 99.8644L48.4331 106.134C46.361 99.4776 45.8317 92.3071 47.1739 85.0277C51.9971 58.875 79.0984 41.2485 107.713 45.6571ZM151.47 90.7787C151.634 94.132 151.422 97.5478 150.788 100.993C145.968 127.145 118.862 144.773 90.2498 140.365C72.1304 137.575 57.7553 126.615 50.8702 112.313L64.1605 106.2L66.6805 105.186L72.9273 93.914L84.2401 116.276L92.2128 132.029L99.415 116.186L112.606 87.1595L119.436 100.859L120.943 103.885L151.467 90.78L151.47 90.7787Z" fill="#C94525"/>
<path d="M209.514 47.3265C207.078 47.3265 205.217 46.5357 203.929 44.954L205.89 43.2714C206.796 44.3932 207.952 44.954 209.361 44.954C210.488 44.954 211.429 44.655 212.184 44.0569C212.938 43.4601 213.425 42.6175 213.648 41.5329H207.067V39.0223H213.617C213.396 37.9922 212.908 37.1828 212.153 36.594C211.398 36.0052 210.468 35.7115 209.361 35.7115C207.913 35.7115 206.755 36.2724 205.89 37.3941L203.929 35.7115C205.216 34.1299 207.078 33.3391 209.514 33.3391C211.727 33.3391 213.539 33.997 214.948 35.3114C216.357 36.6272 217.061 38.2966 217.061 40.3195C217.061 42.3424 216.357 44.0396 214.948 45.3541C213.539 46.6699 211.727 47.3265 209.514 47.3265Z" fill="#5A5A59"/>
<path d="M237.557 46.9942H233.572L229.105 41.5037L227.082 43.4083V46.9942H223.912V33.6674H227.082V40.0975L233.512 33.6674H237.437L231.369 39.7108L237.557 46.9942Z" fill="#5A5A59"/>
<path d="M249.874 47.3265C247.62 47.3265 245.808 46.65 244.44 45.2983C243.072 43.9466 242.387 42.2866 242.387 40.3182C242.387 38.3498 243.07 36.6951 244.44 35.3514C245.808 34.009 247.62 33.3378 249.874 33.3378C252.128 33.3378 253.969 34.009 255.337 35.3514C256.705 36.6937 257.39 38.3498 257.39 40.3182C257.39 42.2866 256.705 43.9692 255.337 45.3129C253.969 46.6553 252.147 47.3265 249.874 47.3265ZM249.874 44.76C251.181 44.76 252.213 44.3321 252.968 43.4775C253.723 42.6215 254.101 41.5689 254.101 40.3182C254.101 39.0675 253.724 38.0414 252.968 37.1868C252.213 36.3309 251.183 35.9043 249.874 35.9043C248.565 35.9043 247.565 36.3322 246.81 37.1868C246.055 38.0428 245.677 39.0861 245.677 40.3182C245.677 41.5503 246.054 42.6215 246.81 43.4775C247.565 44.3334 248.586 44.76 249.874 44.76Z" fill="#5A5A59"/>
<path d="M270.883 47.3265C268.668 47.3265 266.858 46.6686 265.449 45.3541C264.04 44.0396 263.336 42.361 263.336 40.3195C263.336 38.278 264.04 36.6272 265.449 35.3114C266.858 33.997 268.668 33.3391 270.883 33.3391C273.317 33.3391 275.18 34.1299 276.466 35.7115L274.384 37.4779C273.579 36.4292 272.462 35.9055 271.034 35.9055C269.705 35.9055 268.639 36.3149 267.833 37.1336C267.028 37.9523 266.627 39.0143 266.627 40.3208C266.627 41.6273 267.029 42.6932 267.833 43.5213C268.638 44.3493 269.705 44.7626 271.034 44.7626C272.363 44.7626 273.539 44.239 274.384 43.1903L276.466 44.9567C275.178 46.5383 273.317 47.3291 270.883 47.3291" fill="#5A5A59"/>
<path d="M285.945 46.9942H282.897V33.6674H286.066V42.6348L292.768 33.6674H295.938V46.9942H292.768V37.7796L285.945 46.9942Z" fill="#5A5A59"/>
<path d="M310.336 47.3265C308.121 47.3265 306.311 46.6686 304.902 45.3541C303.493 44.0396 302.789 42.361 302.789 40.3195C302.789 38.278 303.493 36.6272 304.902 35.3114C306.311 33.997 308.121 33.3391 310.336 33.3391C312.77 33.3391 314.633 34.1299 315.919 35.7115L313.837 37.4779C313.032 36.4292 311.915 35.9055 310.487 35.9055C309.158 35.9055 308.092 36.3149 307.287 37.1336C306.481 37.9523 306.08 39.0143 306.08 40.3208C306.08 41.6273 306.482 42.6932 307.287 43.5213C308.091 44.3493 309.158 44.7626 310.487 44.7626C311.816 44.7626 312.992 44.239 313.837 43.1903L315.919 44.9567C314.631 46.5383 312.77 47.3291 310.336 47.3291" fill="#5A5A59"/>
<path d="M328.177 46.9942H325.007V36.2059H320.841V33.6674H332.373V36.2059H328.177V46.9942Z" fill="#5A5A59"/>
<path d="M345.352 47.3265C343.137 47.3265 341.311 46.6779 339.873 45.3807C338.433 44.0835 337.715 42.3969 337.715 40.3182C337.715 38.3684 338.414 36.7176 339.813 35.3646C341.212 34.0129 342.977 33.3364 345.11 33.3364C347.243 33.3364 348.999 34.0169 350.317 35.3779C351.635 36.7389 352.295 38.4774 352.295 40.5933V41.2831H341.036C341.157 42.3318 341.629 43.205 342.455 43.9041C343.28 44.6032 344.357 44.9527 345.685 44.9527C346.429 44.9527 347.18 44.8238 347.934 44.566C348.689 44.3081 349.317 43.9493 349.822 43.4894L351.271 45.3927C349.803 46.6806 347.829 47.3238 345.355 47.3238M349.218 39.2389C349.177 38.3192 348.811 37.5005 348.116 36.7828C347.422 36.0651 346.42 35.7075 345.112 35.7075C343.803 35.7075 342.888 36.0624 342.183 36.7695C341.478 37.4779 341.087 38.3006 341.005 39.2389H349.217H349.218Z" fill="#5A5A59"/>
<path d="M375.419 46.9942H372.249V37.7238L367.903 46.9942H366.635L362.258 37.7238V46.9942H359.088V33.6674H363.223L367.269 42.2773L371.253 33.6674H375.419V46.9942Z" fill="#5A5A59"/>
<path d="M395.25 46.9942H392.08V45.5588C390.954 46.7364 389.383 47.3252 387.371 47.3252C386.043 47.3252 384.865 46.9344 383.839 46.1529C382.812 45.3714 382.299 44.2909 382.299 42.9113C382.299 41.5317 382.806 40.4192 383.823 39.6829C384.839 38.9479 386.021 38.5797 387.369 38.5797C389.441 38.5797 391.012 39.1499 392.079 40.2903V38.3033C392.079 37.5311 391.766 36.9237 391.143 36.4824C390.519 36.0412 389.694 35.8205 388.668 35.8205C387.038 35.8205 385.598 36.3814 384.351 37.5032L383.052 35.4896C384.702 34.0542 386.745 33.3378 389.18 33.3378C390.971 33.3378 392.429 33.7245 393.556 34.4967C394.683 35.2689 395.248 36.493 395.248 38.1664V46.9956L395.25 46.9942ZM388.61 45.3382C390.199 45.3382 391.356 44.8783 392.08 43.9586V41.945C391.356 41.0253 390.199 40.5654 388.61 40.5654C387.704 40.5654 386.959 40.786 386.376 41.2273C385.792 41.6686 385.501 42.248 385.501 42.9657C385.501 43.6835 385.792 44.2576 386.376 44.6909C386.959 45.1229 387.704 45.3395 388.61 45.3395" fill="#5A5A59"/>
<path d="M414.625 50.3887V44.5952C415.308 44.4477 415.827 44.0848 416.179 43.5053C416.531 42.9259 416.817 41.8081 417.04 40.1534L417.915 33.6687H429.174V44.457H430.774V50.3887H427.604V46.9956H417.793V50.3887H414.623H414.625ZM420.723 36.2059L420.21 40.483C420.008 42.2494 419.365 43.5731 418.277 44.4557H426.004V36.2059H420.722H420.723Z" fill="#5A5A59"/>
<path d="M435.514 47.3265V44.9541C436.138 44.9541 436.635 44.5859 437.009 43.8509C437.381 43.1159 437.688 41.8825 437.929 40.1534L438.805 33.6687H450.064V46.9956H446.894V36.2073H441.611L441.098 40.4843C440.816 42.8754 440.222 44.6138 439.317 45.6997C438.411 46.7856 437.143 47.3278 435.513 47.3278" fill="#5A5A59"/>
<path d="M460.931 46.9942H457.309L460.9 42.0274C459.894 41.8254 459.074 41.3655 458.44 40.6478C457.806 39.9301 457.489 39.0196 457.489 37.9165C457.489 36.7216 457.916 35.7142 458.771 34.8954C459.626 34.0767 460.809 33.6674 462.318 33.6674H470.65V46.9942H467.48V42.1656H464.13L460.929 46.9942H460.931ZM462.712 39.627H467.481V36.2059H462.712C462.109 36.2059 461.626 36.3668 461.264 36.6884C460.902 37.01 460.72 37.4194 460.72 37.9165C460.72 38.4136 460.896 38.8455 461.248 39.1579C461.6 39.4702 462.088 39.627 462.712 39.627Z" fill="#5A5A59"/>
<path d="M507.866 46.9942H504.696V37.7238L500.35 46.9942H499.082L494.705 37.7238V46.9942H491.535V33.6674H495.671L499.716 42.2773L503.7 33.6674H507.866V46.9942Z" fill="#5A5A59"/>
<path d="M514.989 52.2096L515.472 49.6165C515.834 49.7641 516.237 49.8372 516.679 49.8372C517.705 49.8372 518.399 49.4504 518.761 48.6782L519.485 47.1604L513.509 33.6674H516.89L521.146 43.6555L525.402 33.6674H528.813L521.78 49.3946C520.914 51.363 519.244 52.3651 516.769 52.4023C516.104 52.4023 515.511 52.3372 514.988 52.2096" fill="#5A5A59"/>
<path d="M539.712 47.3265C536.854 47.3265 534.619 46.6088 533.01 45.1747L534.489 43.3259C535.818 44.4118 537.557 44.9541 539.71 44.9541C540.817 44.9541 541.688 44.7933 542.322 44.4716C542.956 44.15 543.273 43.7127 543.273 43.1611C543.273 42.0022 541.995 41.4227 539.44 41.4227H536.331V39.1047H539.44C540.546 39.1047 541.417 38.9572 542.051 38.6635C542.685 38.3697 543.002 37.9365 543.002 37.3663C543.002 36.8878 542.671 36.4931 542.006 36.1794C541.342 35.867 540.507 35.7102 539.501 35.7102C537.548 35.7102 535.989 36.2445 534.822 37.3104L533.253 35.5441C534.803 34.0914 536.834 33.3644 539.35 33.3644C541.503 33.3458 543.199 33.6634 544.436 34.316C545.673 34.9699 546.293 35.8564 546.293 36.9782C546.293 37.8248 545.905 38.5372 545.131 39.1167C544.356 39.6962 543.456 40.051 542.429 40.1786C543.456 40.2531 544.407 40.5654 545.282 41.117C546.158 41.6686 546.595 42.4235 546.595 43.3791C546.595 44.5381 545.976 45.4857 544.738 46.2207C543.501 46.957 541.826 47.3239 539.713 47.3239" fill="#5A5A59"/>
<path d="M553.447 33.6674H556.617V38.496H561.779C563.329 38.496 564.52 38.9013 565.356 39.7108C566.191 40.5202 566.608 41.5316 566.608 42.7464C566.608 43.9612 566.181 44.9487 565.326 45.7675C564.469 46.5862 563.289 46.9955 561.779 46.9955H553.447V33.6687V33.6674ZM561.387 41.0345H556.617V44.4556H561.387C562.01 44.4556 562.499 44.2988 562.851 43.9865C563.203 43.6741 563.379 43.2595 563.379 42.7451C563.379 42.2307 563.203 41.8161 562.851 41.5037C562.499 41.1914 562.01 41.0345 561.387 41.0345ZM571.983 46.9942H568.813V33.6674H571.983V46.9942Z" fill="#5A5A59"/>
<path d="M593.384 46.9942H589.4L584.931 41.5037L582.909 43.4083V46.9942H579.74V33.6674H582.909V40.0975L589.339 33.6674H593.263L587.195 39.7108L593.384 46.9942Z" fill="#5A5A59"/>
<path d="M611.344 46.9942H608.174V45.5588C607.047 46.7364 605.477 47.3252 603.464 47.3252C602.137 47.3252 600.959 46.9344 599.932 46.1529C598.906 45.3714 598.393 44.2909 598.393 42.9113C598.393 41.5317 598.9 40.4192 599.916 39.6829C600.933 38.9479 602.115 38.5797 603.463 38.5797C605.535 38.5797 607.105 39.1499 608.173 40.2903V38.3033C608.173 37.5311 607.86 36.9237 607.236 36.4824C606.613 36.0412 605.788 35.8205 604.761 35.8205C603.131 35.8205 601.692 36.3814 600.444 37.5032L599.146 35.4896C600.796 34.0542 602.839 33.3378 605.273 33.3378C607.065 33.3378 608.523 33.7245 609.65 34.4967C610.777 35.2689 611.341 36.493 611.341 38.1664V46.9956L611.344 46.9942ZM604.703 45.3382C606.293 45.3382 607.45 44.8783 608.174 43.9586V41.945C607.45 41.0253 606.293 40.5654 604.703 40.5654C603.797 40.5654 603.053 40.786 602.47 41.2273C601.885 41.6686 601.594 42.248 601.594 42.9657C601.594 43.6835 601.885 44.2576 602.47 44.6909C603.053 45.1229 603.797 45.3395 604.703 45.3395" fill="#5A5A59"/>
<path d="M622.271 46.9942H619.102V33.6674H622.271V38.9106H628.972V33.6674H632.142V46.9942H628.972V41.4492H622.271V46.9942Z" fill="#5A5A59"/>
<path d="M645.726 46.9942H642.557V36.2059H638.391V33.6674H649.923V36.2059H645.726V46.9942Z" fill="#5A5A59"/>
<path d="M662.751 47.3265C660.497 47.3265 658.685 46.65 657.317 45.2983C655.949 43.9466 655.264 42.2866 655.264 40.3182C655.264 38.3498 655.947 36.6951 657.317 35.3514C658.685 34.009 660.497 33.3378 662.751 33.3378C665.005 33.3378 666.846 34.009 668.214 35.3514C669.582 36.6937 670.267 38.3498 670.267 40.3182C670.267 42.2866 669.582 43.9692 668.214 45.3129C666.846 46.6553 665.023 47.3265 662.751 47.3265ZM662.751 44.76C664.058 44.76 665.09 44.3321 665.845 43.4775C666.6 42.6215 666.978 41.5689 666.978 40.3182C666.978 39.0675 666.601 38.0414 665.845 37.1868C665.09 36.3309 664.059 35.9043 662.751 35.9043C661.442 35.9043 660.442 36.3322 659.687 37.1868C658.932 38.0428 658.554 39.0861 658.554 40.3182C658.554 41.5503 658.932 42.6215 659.687 43.4775C660.442 44.3334 661.462 44.76 662.751 44.76Z" fill="#5A5A59"/>
<path d="M686.055 46.9942H677.12V33.6674H685.845C687.193 33.6674 688.25 33.989 689.015 34.6336C689.779 35.2782 690.162 36.0956 690.162 37.0898C690.162 37.862 689.931 38.5159 689.468 39.0489C689.004 39.5832 688.421 39.9407 687.718 40.1254C688.503 40.2902 689.156 40.6823 689.679 41.2977C690.203 41.9144 690.464 42.6082 690.464 43.3804C690.464 44.4477 690.076 45.3169 689.302 45.9881C688.527 46.6593 687.446 46.9955 686.057 46.9955M685.302 38.9106C685.805 38.9106 686.202 38.787 686.495 38.5385C686.785 38.29 686.932 37.9723 686.932 37.5869C686.932 37.1642 686.785 36.828 686.495 36.5794C686.202 36.3309 685.805 36.2073 685.302 36.2073H680.291V38.9106H685.302ZM685.392 44.457C685.955 44.457 686.399 44.3241 686.72 44.0569C687.041 43.7898 687.203 43.4269 687.203 42.9671C687.203 42.5444 687.041 42.1855 686.72 41.8905C686.397 41.5968 685.955 41.4492 685.392 41.4492H680.291V44.457H685.392Z" fill="#5A5A59"/>
</svg>
