<svg width="341" height="68" viewBox="0 0 341 68" fill="none" xmlns="http://www.w3.org/2000/svg">
<g clip-path="url(#clip0_1027_12)">
<path fill-rule="evenodd" clip-rule="evenodd" d="M105.784 17.8724H130.006C134.958 17.8724 139.156 20.1776 139.17 25.4818V44.9587C139.17 50.2662 134.979 52.9201 130.006 52.9201H105.784V68H91.0221V52.9201H66.8146C61.8416 52.9201 57.5791 50.2662 57.5791 44.9587V25.4818C57.5791 20.1776 61.8416 17.8724 66.8146 17.8724H91.0221V0H105.784V17.8724ZM75.6309 46.3567H91.0221V23.8774H75.6309C73.5422 23.8774 71.7235 25.062 71.7235 27.6446V42.5182C71.7235 45.2396 73.5315 46.3567 75.6309 46.3567ZM121.037 46.3567C123.275 46.3567 125.094 45.2396 125.094 42.5182V27.6446C125.094 25.062 123.275 23.8774 121.037 23.8774H105.784V46.3567H121.037Z" fill="white"/>
<path fill-rule="evenodd" clip-rule="evenodd" d="M42.1171 17.8724H0.138531V23.8775H32.8177C35.0556 23.8775 36.9452 24.7845 36.9452 27.2962V29.0428H8.81628C2.87009 29.0428 0 32.184 0 36.5134V45.1009C0 49.4268 2.87009 52.9272 8.81628 52.9272H50.9333V24.9233C50.9333 19.9678 47.0154 17.8724 42.1171 17.8724ZM36.9416 46.2856H18.4709C14.6239 46.2856 13.9917 44.9587 13.9917 42.8669V38.5979C13.9917 36.5027 15.1106 35.1758 18.4709 35.1758H36.9416V46.2856Z" fill="white"/>
<path d="M160.438 42.3333C160.549 40.7408 160.568 39.1431 160.494 37.5485V17.8724H145.803V52.9201H160.636L182.752 28.374C182.634 29.893 182.535 32.2373 182.535 34.0659V52.9201H197.227V17.8724H182.535L160.438 42.3333Z" fill="white"/>
<path fill-rule="evenodd" clip-rule="evenodd" d="M290.205 17.8724H332.184C337.093 17.8724 341 19.9678 341 24.9233V52.9272H298.183C292.936 52.9272 290.067 49.0141 290.067 45.1009V36.5134C290.067 32.184 293.076 29.0428 298.183 29.0428H327.012V27.2962C327.012 24.7845 325.122 23.8775 322.886 23.8775H290.205V17.8724ZM308.119 46.2856H327.009V35.1865H308.119C305.181 35.1865 304.059 36.7233 304.059 38.6087V43.0055C304.059 44.1226 304.692 46.2856 308.119 46.2856Z" fill="white"/>
<path d="M268.73 46.3567H251.097V17.8724H236.544V46.3567H219.125V17.8724H204.572V52.9201H283.421V17.8724H268.73V46.3567Z" fill="white"/>
</g>
<defs>
<clipPath id="clip0_1027_12">
<rect width="341" height="68" fill="white"/>
</clipPath>
</defs>
</svg>
